<?xml version="1.0" encoding="UTF-8" standalone="no"?>
<!DOCTYPE svg PUBLIC "-//W3C//DTD SVG 1.1//EN" "http://www.w3.org/Graphics/SVG/1.1/DTD/svg11.dtd">
<svg width="100%" height="100%" viewBox="0 0 1021 2075" version="1.1" xmlns="http://www.w3.org/2000/svg" xmlns:xlink="http://www.w3.org/1999/xlink" xml:space="preserve" xmlns:serif="http://www.serif.com/" style="fill-rule:evenodd;clip-rule:evenodd;stroke-linejoin:round;stroke-miterlimit:2;">
    <g transform="matrix(1,0,0,1,-2858.333333,-241.666667)">
        <g transform="matrix(4.166667,0,0,4.166667,2858.333333,95.031738)">
            <path d="M128.588,417.418C137.218,408.871 149.163,404.87 160.919,406.1L160.919,496.343L121.122,533.021L81.325,496.343L81.325,406.1C93.081,404.87 105.027,408.871 113.656,417.418L121.122,424.812L128.588,417.418ZM150.307,496.343C142.336,491.026 131.661,492.442 125.35,499.653L121.122,504.484L116.895,499.653C110.584,492.442 99.909,491.026 91.938,496.343L104.787,508.399C113.973,517.02 128.271,517.02 137.457,508.399L150.307,496.343ZM178.165,399.984L176.807,399.4C157.835,391.231 135.75,395.385 121.122,409.872C106.494,395.385 84.408,391.231 65.437,399.4L64.079,399.984L64.079,337.245L178.165,337.245L178.165,399.984ZM108.115,352.542C106.411,352.542 104.887,352.959 103.545,353.794C102.215,354.617 101.162,355.742 100.389,357.169C99.627,358.596 99.246,360.199 99.246,361.978C99.246,363.865 99.567,365.492 100.208,366.859C100.861,368.214 101.774,369.261 102.946,369.999C104.131,370.725 105.504,371.088 107.063,371.088C108.055,371.088 108.962,370.894 109.784,370.507C110.618,370.108 111.331,369.527 111.924,368.765L111.96,369.164C111.936,371.39 111.483,373.03 110.601,374.082C109.718,375.134 108.508,375.66 106.973,375.66C106.199,375.66 105.407,375.587 104.597,375.442C103.799,375.285 103.018,375.067 102.257,374.789L101.659,378.618C102.481,378.981 103.376,379.253 104.343,379.435C105.322,379.628 106.272,379.726 107.19,379.726C109.149,379.726 110.879,379.302 112.378,378.455C113.889,377.596 115.068,376.356 115.914,374.735C116.772,373.114 117.202,371.166 117.202,368.892L117.202,363.157C117.202,360.919 116.821,359.008 116.06,357.423C115.298,355.838 114.233,354.629 112.867,353.794C111.501,352.959 109.917,352.542 108.115,352.542ZM130.613,352.542C127.869,352.542 125.692,353.456 124.084,355.282C122.488,357.097 121.69,359.746 121.689,363.229L121.689,369.055C121.689,372.551 122.493,375.207 124.102,377.021C125.71,378.824 127.893,379.726 130.649,379.726C133.382,379.725 135.546,378.824 137.142,377.021C138.75,375.207 139.554,372.551 139.554,369.055L139.554,363.229C139.554,359.746 138.744,357.097 137.124,355.282C135.516,353.456 133.345,352.542 130.613,352.542ZM154.507,352.542C152.427,352.542 150.589,353.014 148.993,353.957C147.409,354.889 146.164,356.238 145.257,358.004C144.362,359.758 143.915,361.881 143.915,364.373L143.915,369.019C143.915,371.245 144.313,373.162 145.111,374.771C145.909,376.368 147.016,377.596 148.431,378.455C149.857,379.302 151.496,379.726 153.346,379.726C155.099,379.726 156.641,379.332 157.971,378.546C159.313,377.747 160.359,376.658 161.108,375.279C161.87,373.888 162.251,372.303 162.251,370.524C162.251,368.795 161.948,367.259 161.344,365.916C160.739,364.573 159.869,363.52 158.732,362.758C157.596,361.996 156.235,361.615 154.651,361.615C153.551,361.615 152.542,361.791 151.623,362.142C150.716,362.492 149.966,362.976 149.374,363.593L149.319,363.502C149.331,361.264 149.785,359.57 150.68,358.421C151.586,357.272 152.911,356.697 154.651,356.697C155.401,356.697 156.127,356.776 156.828,356.934C157.529,357.091 158.207,357.284 158.859,357.514L159.784,353.648C158.938,353.286 158.091,353.013 157.245,352.832C156.411,352.639 155.498,352.542 154.507,352.542ZM81.683,354.701L81.683,357.731L86.198,357.731L86.198,375.624L81.736,376.169L81.736,379.344L95.938,379.344L95.938,376.169L91.477,375.624L91.477,352.923L81.683,354.701ZM130.613,356.625C131.798,356.625 132.704,357.109 133.333,358.076C133.962,359.044 134.276,360.581 134.276,362.686L134.276,369.563C134.276,371.692 133.968,373.241 133.352,374.209C132.735,375.176 131.834,375.66 130.649,375.66C129.441,375.66 128.521,375.176 127.893,374.209C127.276,373.241 126.967,371.692 126.967,369.563L126.967,362.686C126.967,360.581 127.276,359.044 127.893,358.076C128.509,357.109 129.416,356.625 130.613,356.625ZM152.965,365.625C154.234,365.625 155.214,366.079 155.903,366.986C156.604,367.882 156.955,369.037 156.955,370.452C156.955,371.42 156.804,372.303 156.502,373.102C156.2,373.888 155.77,374.511 155.214,374.971C154.658,375.43 153.999,375.66 153.237,375.66C152.04,375.66 151.067,375.098 150.317,373.973C149.568,372.848 149.192,371.238 149.192,369.146L149.192,367.386C149.446,367.011 149.761,366.696 150.136,366.442C150.51,366.188 150.94,365.988 151.424,365.843C151.907,365.698 152.421,365.625 152.965,365.625ZM108.151,356.625C109.312,356.625 110.231,357.127 110.908,358.131C111.585,359.123 111.924,360.593 111.924,362.54L111.924,365.371C111.537,365.927 111.023,366.375 110.383,366.714C109.742,367.04 109.016,367.204 108.206,367.204C107.396,367.204 106.719,366.993 106.175,366.569C105.631,366.146 105.22,365.54 104.941,364.754C104.675,363.968 104.542,363.042 104.542,361.978C104.542,360.998 104.694,360.102 104.996,359.292C105.31,358.47 105.739,357.822 106.283,357.351C106.827,356.867 107.45,356.625 108.151,356.625ZM100.641,277.827C105.89,277.827 110.192,279.048 113.546,281.49C116.9,283.933 118.576,287.166 118.576,291.188C118.576,294.78 117.301,297.869 114.749,300.455C112.197,302.969 107.603,304.91 100.969,306.274C97.178,307.065 93.094,307.675 88.72,308.106C88.938,311.195 89.668,313.601 90.907,315.325C92.147,317.049 94.261,317.912 97.25,317.912C100.968,317.912 103.375,316.906 104.469,314.895C105.562,312.811 106.291,311.159 106.655,309.937L117.702,312.093C116.973,316.331 114.639,320.138 110.702,323.515C106.838,326.819 101.661,328.472 95.172,328.472C89.339,328.472 84.345,326.748 80.189,323.3C76.034,319.852 73.955,314.32 73.955,306.705C73.955,298.947 76.289,292.194 80.955,286.447C85.621,280.701 92.183,277.827 100.641,277.827ZM147.172,277.827C149.651,277.827 152.494,278.15 155.702,278.797C158.91,279.372 161.827,280.413 164.451,281.922L164.998,296.684L153.733,297.869L153.077,289.249C151.838,288.818 150.708,288.566 149.688,288.494C148.74,288.422 147.718,288.387 146.625,288.387C143.636,288.387 141.156,289.895 139.188,292.912C137.292,295.857 136.345,300.168 136.345,305.843C136.345,309.506 136.892,312.452 137.985,314.679C139.152,316.834 141.302,317.912 144.438,317.912C147.135,317.912 149.141,317.014 150.453,315.218C151.838,313.35 153.004,310.655 153.952,307.136L164.998,309.291C164.05,313.889 161.79,318.235 158.218,322.33C154.645,326.425 149.286,328.472 142.141,328.472C135.725,328.472 130.694,326.532 127.049,322.653C123.476,318.774 121.689,313.35 121.689,306.382C121.689,301.784 122.528,297.294 124.205,292.912C125.955,288.53 128.689,284.938 132.407,282.137C136.199,279.263 141.12,277.827 147.172,277.827ZM75.73,279.012L63.7,280.09L62.606,269.638L44.014,269.638L41.936,289.249L70.59,289.249L69.277,301.425L40.624,301.425L39.202,315.11L50.357,315.11L49.045,327.395L16.563,327.395L17.875,315.11L25.203,315.11L30.015,269.638L22.578,269.638L23.891,257.354L75.73,257.354L75.73,279.012ZM189.938,286.986C191.542,284.257 193.62,282.065 196.172,280.413C198.724,278.689 201.713,277.827 205.14,277.827C209.587,277.827 213.269,279.191 216.186,281.921C219.175,284.651 220.305,288.89 219.576,294.637L216.842,316.834L223.185,316.834L222.201,324.7L218.92,327.395L202.077,327.395L205.468,300.024C206.051,295.858 205.759,292.877 204.593,291.081C203.426,289.285 201.494,288.387 198.797,288.387C195.662,288.387 193.292,289.356 191.688,291.296C190.084,293.235 188.99,295.786 188.406,298.946L184.907,327.395L171.346,327.395L179.22,263.818L172.877,263.818L173.861,256.168L177.251,253.259L194.094,253.259L189.938,286.986ZM98.781,287.201C95.719,287.201 93.423,288.531 91.892,291.188C90.433,293.775 89.485,296.72 89.048,300.024C89.923,299.881 90.762,299.773 91.563,299.701C92.365,299.558 93.131,299.414 93.86,299.271C98.234,298.48 101.078,297.438 102.391,296.146C103.703,294.853 104.359,293.487 104.359,292.051C104.359,290.255 103.776,288.998 102.609,288.279C101.443,287.561 100.166,287.201 98.781,287.201ZM163.678,69.921C172.247,66.764 185.064,65.175 193.388,68.23C197.935,69.9 199.052,72.738 199.062,72.763C199.052,72.763 194.525,72.716 191.39,72.836C184.285,73.109 175.406,76.911 174.563,77.22C170.176,78.828 163.729,82.272 163.678,82.299C161.874,83.225 160.743,83.596 157.929,85.524L157.639,85.724C145.92,93.752 137.249,105.424 132.971,118.93C131.007,125.131 128.508,147.836 128.499,147.922C128.563,147.884 135.741,143.613 141.49,140.705C147.265,137.784 155.173,125.52 158.678,119.469C162.274,113.259 164.701,109.166 164.72,109.135C164.74,109.167 167.503,113.504 165.223,129.636C160.126,140.5 154.809,146.947 145.662,153.349C139.891,157.388 135.116,163.013 133.105,168.141C131.603,171.972 131.461,173.436 131.535,184.187C131.625,196.928 138.246,208.32 141.089,214.942C141.141,214.903 146.627,210.708 145.662,207.429C143.769,200.997 140.639,185.356 141.49,179.042C142.559,171.123 148.795,162.129 148.795,162.129L150.599,173.179C150.605,173.223 153.637,193.693 155.785,198.661C158.371,175.853 177.119,150.37 184.926,143.437C192.543,136.672 199.962,133.397 205.848,131.936C212.274,130.34 219.153,130.18 228.201,133.846C232.788,135.704 235.838,143.779 235.859,143.836C235.832,143.826 230.348,141.791 226.665,141.312C213.184,139.558 197.597,146.261 191.784,156.109L190.756,157.851C190.756,157.851 189.509,159.549 188.858,160.728C188.097,162.107 188.016,162.149 187.243,164.426C186.313,167.166 183.373,169.974 178.173,186.483C175.724,194.256 173.472,199.867 172.021,204.098C170.821,207.599 178.087,208.857 178.173,208.984C178.262,209.112 179.99,209.085 182.65,209.568C190.558,211.457 192.655,212.539 197.295,214.751C201.994,217.897 205.113,219.727 208,223.946C211.095,228.469 210.27,235.411 210.266,235.444L203.927,231.229C203.927,231.229 186.558,221.185 177.574,223.979C167.951,226.972 160.746,237.375 160.746,255.908L160.746,266.338L147.385,266.756C133.075,267.023 124.496,272.367 124.439,272.402L120.155,274.657L116.772,272.854C116.772,272.854 104.81,266.408 91.996,266.327L81.238,266.26L81.098,262.562C80.675,251.431 72.752,232.42 68.297,227.83C65.313,224.755 61.701,219.522 56.221,218.17C52.086,217.15 39.165,218.215 31.494,220.16C29.699,220.615 28.323,221.137 28.289,221.15C28.296,221.099 28.9,216.422 33.127,213.105C39.216,208.328 48.615,207.082 56.417,206.562C64.246,206.042 67.823,208.18 74.903,212.973C79.559,216.124 87.581,226.665 88.438,225.936C90.033,224.571 90.796,217.217 89.035,209.735C87.29,202.322 83.044,194.784 79.789,192.822C76.651,190.931 70.676,189.189 64.252,188.587C62.215,188.396 55.191,189.116 48.482,187.78C41.134,186.317 34.117,182.751 33.313,181.652C29.679,176.679 30.264,169.592 30.267,169.556C30.277,169.563 30.611,169.811 36.123,173.479C38.888,175.318 49.495,177.844 52.725,177.706C58.349,177.465 65.263,176.2 65.263,176.2C65.34,176.187 70.711,175.225 71.671,172.526C75.279,162.379 62.201,157.629 54.532,151.416C49.407,147.263 28.748,138.983 18.033,135.766C15.202,134.915 13.076,134.338 13.041,134.328C13.096,134.27 18.416,128.615 26.881,128.099C42.201,127.165 78.734,145.487 88.202,162.807C92.877,171.359 97.629,179.232 100.762,186.483C103.921,193.797 106.333,201.316 107.978,207.429C108.666,209.992 108.599,210.986 108.907,210.659C110.275,209.209 111.448,192.083 110.729,184.187L110.729,171.612C110.88,171.599 110.754,165.856 110.729,165.073C110.717,164.66 110.614,163.926 110.458,162.807C110.208,161.015 109.217,155.889 108.255,151.416C107.293,146.943 105.631,141.182 105.046,137.8C103.262,127.484 88.134,103.973 83.623,100.139C82.27,98.989 80.982,97.984 73.926,96.53C69.705,95.317 66.781,94.95 66.742,94.945C66.769,94.924 69.059,93.139 70.754,92.34C76.646,89.562 77.531,88.725 86.187,89.23C95.349,89.766 103.242,103.722 111.586,112.479L114.969,115.473L119.253,109.135C134.813,85.682 134.813,82.775 163.678,69.921ZM192.674,230.496C198.466,228.623 204.803,232.178 206.826,238.435L208.475,243.533L203.755,245.06C197.963,246.932 191.627,243.377 189.604,237.12L187.955,232.022L192.674,230.496ZM33.557,227.76C35.49,222.04 42.71,219.314 49.683,221.67L55.364,223.59L53.79,228.25C51.857,233.97 44.636,236.696 37.663,234.34L31.981,232.42L33.557,227.76ZM201.703,204.747C207.368,203.374 212.734,206.564 213.688,211.873L214.466,216.199L209.851,217.318C204.186,218.692 198.82,215.501 197.865,210.191L197.088,205.866L201.703,204.747ZM16.856,197.712C24.284,191.416 34.456,191.186 39.575,197.198L43.746,202.097L37.694,207.228C30.267,213.524 20.096,213.754 14.977,207.741L10.805,202.842L16.856,197.712ZM212.021,195.76C216.551,191.273 224.342,191.794 229.421,196.923L233.56,201.103L229.868,204.758C225.338,209.244 217.546,208.724 212.467,203.595L208.329,199.415L212.021,195.76ZM179.891,192.832C182.075,184.732 192.593,180.523 203.384,183.432L212.178,185.803L210.398,192.404C208.214,200.504 197.696,204.712 186.905,201.804L178.11,199.434L179.891,192.832ZM222.004,169.447C230.394,170.927 236.081,178.448 234.706,186.244L233.586,192.597L226.749,191.391C218.359,189.91 212.672,182.39 214.047,174.594L215.167,168.242L222.004,169.447ZM15.27,168.831C22.242,168.567 29.063,173.782 30.504,180.479L31.678,185.937L25.996,186.152C19.024,186.416 12.204,181.201 10.763,174.504L9.588,169.046L15.27,168.831ZM202.552,157.937C208.176,160.94 209.98,168.536 206.581,174.904L203.812,180.093L199.229,177.646C193.604,174.643 191.8,167.046 195.199,160.678L197.969,155.489L202.552,157.937ZM46.166,156.246C53.611,154.965 60.856,158.422 62.349,163.968L63.564,168.486L57.498,169.53C50.053,170.812 42.808,167.355 41.315,161.81L40.1,157.29L46.166,156.246ZM214.449,146.486C220.853,141.067 231.898,143.586 239.119,152.116L245.004,159.068L239.785,163.486C233.382,168.906 222.337,166.385 215.115,157.855L209.23,150.903L214.449,146.486ZM5.301,144.267C11.807,137.592 22.592,136.879 29.391,142.675L34.931,147.398L29.629,152.837C23.123,159.512 12.338,160.224 5.539,154.429L0,149.706L5.301,144.267ZM74.708,130.031C80.014,129.077 85.196,133.193 86.281,139.225L87.165,144.139L82.843,144.917C77.537,145.872 72.355,141.755 71.27,135.724L70.386,130.81L74.708,130.031ZM56.272,107.359C64.002,110.133 67.638,119.715 64.393,128.76L61.749,136.13L55.45,133.869C47.72,131.095 44.084,121.515 47.329,112.47L49.974,105.1L56.272,107.359ZM190.959,107.827C193.997,116.71 189.454,126.307 180.813,129.262L173.772,131.67L171.298,124.432C168.26,115.549 172.803,105.952 181.443,102.997L188.484,100.59L190.959,107.827ZM212.698,117.543C216.257,108.874 225.911,104.625 234.262,108.053L241.066,110.846L238.166,117.909C234.607,126.578 224.953,130.827 216.603,127.399L209.799,124.606L212.698,117.543ZM23.919,98.451C34.546,99.148 42.616,108.049 41.942,118.334L41.394,126.715L32.733,126.147C22.106,125.451 14.036,116.549 14.71,106.264L15.259,97.884L23.919,98.451ZM157.772,106.612C159.686,114.004 155.464,121.491 148.344,123.334L142.542,124.836L140.983,118.812C139.07,111.421 143.292,103.934 150.412,102.091L156.214,100.59L157.772,106.612ZM214.025,100.011C216.735,106.761 212.522,114.829 204.615,118.031L198.172,120.641L195.963,115.141C193.253,108.39 197.466,100.321 205.374,97.119L211.817,94.511L214.025,100.011ZM71.779,101.725C78.892,101.204 86.595,106.244 88.984,112.98L90.932,118.471L85.135,118.896C78.022,119.416 70.319,114.377 67.93,107.64L65.983,102.149L71.779,101.725ZM118.415,88.18C122.171,92.047 121.652,98.643 117.257,102.913L113.676,106.393L110.615,103.242C106.859,99.375 107.377,92.778 111.772,88.508L115.354,85.029L118.415,88.18ZM162.776,86.995C167.139,82.919 175.415,84.127 181.26,89.695L186.022,94.232L182.468,97.554C178.105,101.63 169.829,100.421 163.984,94.853L159.222,90.316L162.776,86.995ZM38.239,80.584C46.409,73.752 58.393,74.622 65.005,82.528L70.393,88.972L63.735,94.538C55.565,101.37 43.582,100.5 36.97,92.594L31.582,86.151L38.239,80.584ZM186.562,80.428C191.954,73.194 202.818,72.168 210.825,78.137L217.349,83L212.956,88.894C207.564,96.127 196.701,97.153 188.693,91.185L182.17,86.322L186.562,80.428ZM99.483,59.756C109.048,64.44 113.129,75.74 108.597,84.997L104.903,92.54L97.109,88.724C87.544,84.04 83.464,72.738 87.996,63.481L91.689,55.939L99.483,59.756ZM142.365,49.897C148.509,60.719 145.039,74.294 134.616,80.217L126.123,85.043L121.117,76.226C114.973,65.404 118.443,51.829 128.867,45.906L137.359,41.08L142.365,49.897ZM70.549,64.36C78.943,65.84 84.864,72.055 83.774,78.242L82.886,83.283L76.046,82.078C67.652,80.599 61.731,74.384 62.82,68.197L63.709,63.155L70.549,64.36ZM169.891,50.962C170.245,59.799 164.246,67.214 156.493,67.525L150.176,67.779L149.887,60.578C149.533,51.741 155.531,44.326 163.284,44.015L169.602,43.762L169.891,50.962ZM78.613,44.232C84.662,45.865 87.987,52.841 86.038,59.814L84.449,65.496L79.521,64.166C73.472,62.533 70.148,55.557 72.097,48.584L73.685,42.902L78.613,44.232ZM109.659,38.958C117.199,43.58 120.024,52.69 115.97,59.306L112.666,64.696L106.521,60.93C98.981,56.308 96.156,47.199 100.211,40.583L103.515,35.192L109.659,38.958ZM188.056,49.644C189.781,55.201 186.316,61.217 180.315,63.081L175.426,64.6L174.02,60.071C172.293,54.513 175.759,48.496 181.76,46.633L186.648,45.114L188.056,49.644Z" style="fill:rgb(152,22,38);fill-rule:nonzero;"/>
        </g>
    </g>
</svg>
